<svg height="512pt" viewBox="-91 0 512 512" width="512pt" xmlns="http://www.w3.org/2000/svg"><path d="m150 301h30v30h-30zm0 0"/><path d="m30.160156 323.828125c-.101562 2.390625-.160156 4.785156-.160156 7.171875 0 43.941406 17.199219 85.863281 46.441406 114.238281l-2.511718 7.53125c-9.722657 29.175781 11.945312 59.230469 42.691406 59.230469h18.378906c11.515625 0 22.03125-4.351562 30-11.496094 7.96875 7.140625 18.484375 11.496094 30 11.496094h18.378906c30.75 0 52.410156-30.0625 42.6875-59.230469l-2.511718-7.53125c29.246093-28.375 46.445312-70.296875 46.445312-114.238281 0-2.386719-.058594-4.78125-.160156-7.171875 19.746094-15.121094 30.160156-33.324219 30.160156-52.828125 0-19.640625-10.441406-37.808594-30.292969-52.9375-.714843-11.714844-6.210937-28.875-17.097656-43.851562 5.226563-11.808594 5.148437-25.167969-.285156-36.980469-5.730469-12.46875-16.65625-21.527344-29.96875-24.851563l-19.335938-4.835937c4.46875-9.597657 6.980469-20.277344 6.980469-31.542969 0-41.460938-33.535156-76-75-76-41.460938 0-75 34.535156-75 76 0 11.265625 2.511719 21.945312 6.980469 31.542969l-19.335938 4.835937c-13.3125 3.324219-24.234375 12.386719-29.96875 24.851563-5.433593 11.8125-5.511719 25.171875-.28125 36.980469-6.636719 9.125-11.4375 18.941406-14.316406 29.292968-1.609375 4.894532-2.550781 9.785156-2.84375 14.601563-19.8125 15.121093-30.234375 33.277343-30.234375 52.894531 0 19.503906 10.414062 37.707031 30.160156 52.828125zm104.839844 158.171875h-18.378906c-10.25 0-17.46875-10.019531-14.226563-19.742188l8.859375-26.578124-7.890625-6.554688c-24.75-20.566406-40.402343-52.867188-42.980469-87.867188 12.03125 5.253907 25.472657 9.589844 40.007813 12.84375 10.820313 18.3125 28.964844 31.136719 49.609375 35.371094v77.527344c0 8.269531-6.730469 15-15 15zm91.636719-52.875-7.890625 6.554688 8.859375 26.578124c3.242187 9.722657-3.980469 19.742188-14.226563 19.742188h-18.378906c-8.269531 0-15-6.730469-15-15v-77.527344c20.644531-4.234375 38.789062-17.058594 49.609375-35.371094 14.53125-3.253906 27.972656-7.585937 40.007813-12.84375-2.578126 35-18.230469 67.300782-42.980469 87.867188zm-61.636719-399.125c24.394531 0 45 21.066406 45 46 0 24.8125-20.1875 45-45 45s-45-20.1875-45-45c0-24.933594 20.605469-46 45-46zm-103.347656 182.648438.257812-.835938c4.929688-18.078125 17.234375-28.246094 21.121094-33.289062l-7.890625-15.78125c-2.046875-4.089844-2.121094-8.820313-.210937-12.976563 1.910156-4.15625 5.550781-7.171875 9.988281-8.28125l31.980469-7.996094c13.03125 10.917969 29.808593 17.511719 48.101562 17.511719s35.070312-6.59375 48.101562-17.511719l31.976563 7.992188c4.441406 1.109375 8.082031 4.128906 9.992187 8.285156 1.910157 4.15625 1.832032 8.886719-.214843 12.976563l-7.886719 15.78125 6.742188 7.589843c11.886718 13.375 14.378906 26.089844 14.753906 27.027344 1.324218 4.167969 2.332031 10.402344-.417969 16.460937-4.003906 8.824219-13.453125 12.097657-18.730469 13.261719-10.527344 2.324219-23.15625.667969-34.644531-4.546875-10.242187-4.648437-18.894531-11.757812-24.367187-20.011718l-3.980469-6c-5.019531-.390626-11.710938-1.304688-21.324219-1.304688-9.65625 0-16.367188.921875-21.375 1.3125l-3.976562 5.996094c-5.472657 8.253906-14.125 15.359375-24.367188 20.007812-11.488281 5.214844-24.113281 6.871094-34.644531 4.546875-15.917969-3.515625-24.058594-15.132812-18.984375-30.214843zm-22.28125 37.597656c7.78125 10.847656 20.027344 18.648437 34.796875 21.910156 17.761719 3.925781 36.816406 1.058594 53.515625-6.519531 12.769531-5.800781 24.03125-14.445313 32.371094-24.613281 3.324218-.136719 6.519531-.136719 9.847656-.003907 8.339844 10.167969 19.601562 18.816407 32.371094 24.617188 17.53125 7.957031 36.535156 10.273437 53.515624 6.519531 14.703126-3.246094 26.898438-10.992188 34.6875-21.765625l.261719-.019531c5.167969 5.757812 9.261719 12.789062 9.261719 20.628906 0 22.886719-34.238281 45.566406-83.261719 55.152344l-7.566406 1.480468-3.203125 7.015626c-7.300781 16.007812-23.382812 26.351562-40.96875 26.351562s-33.667969-10.34375-40.96875-26.351562l-3.203125-7.015626-7.566406-1.480468c-49.023438-9.585938-83.261719-32.265625-83.261719-55.152344 0-7.894531 4.152344-14.972656 9.371094-20.753906zm0 0"/></svg>