<svg height="512pt" viewBox="0 -1 512.00001 512" width="512pt" xmlns="http://www.w3.org/2000/svg"><path d="m508.605469 95.046875c-2.820313-2.820313-6.644531-4.40625-10.632813-4.40625h-68.878906l-.019531-75.617187c0-8.296876-6.730469-15.023438-15.027344-15.023438h-399.019531c-8.296875 0-15.027344 6.730469-15.027344 15.03125v413.515625c0 .519531.0273438 1.035156.078125 1.542969 1.640625 44.667968 38.46875 80.507812 83.527344 80.507812h372.3125c16.039062 0 30.542969-6.484375 40.84375-18.257812 10.433593-11.925782 15.238281-28.5 15.238281-47.917969v-338.738281c.003906-3.988282-.574219-7.816406-3.394531-10.636719zm-478.546875-64.988281h368.960937l.015625 60.714844h-368.976562zm53.546875 450.476562c-29.527344 0-53.546875-24.019531-53.546875-53.546875v-306.152343h368.984375l.082031 323.570312c0 13.773438 2.617188 26.011719 7.648438 36.128906zm399.046875-36.128906c0 22.285156-10.246094 36.128906-26.734375 36.128906-9.984375 0-26.734375-4.691406-26.734375-36.132812l-.003906-19.042969h25.503906c8.300781 0 15.027344-6.730469 15.027344-15.03125s-6.726563-15.027344-15.027344-15.027344h-25.511719l-.007813-30.871093h25.519532c8.300781 0 15.027344-6.726563 15.027344-15.027344 0-8.300782-6.726563-15.03125-15.027344-15.03125h-25.527344l-.007812-30.867188h25.535156c8.300781 0 15.027344-6.730468 15.027344-15.027344 0-8.300781-6.726563-15.03125-15.027344-15.03125h-25.542969l-.007813-30.867187h25.550782c8.300781 0 15.027344-6.730469 15.027344-15.027344 0-8.300781-6.726563-15.03125-15.027344-15.03125h-25.558594l-.007812-30.867187h25.566406c8.300781 0 15.027344-6.730469 15.027344-15.03125 0-8.300782-6.726563-15.027344-15.027344-15.027344h-25.574219l-.007813-30.890625h53.828126zm0 0"/><path d="m134.070312 302.304688c46.949219 0 85.148438-38.195313 85.148438-85.148438 0-46.949219-38.199219-85.148438-85.148438-85.148438-46.953124 0-85.148437 38.199219-85.148437 85.148438 0 46.953125 38.195313 85.148438 85.148437 85.148438zm46.394532-114.792969c5.496094 8.566406 8.695312 18.734375 8.695312 29.644531 0 10.933594-3.214844 21.121094-8.726562 29.695312-4.914063-7.996093-7.75-18.503906-7.75-29.699218 0-11.011719 2.894531-21.597656 7.78125-29.640625zm-46.394532-25.445313c8.449219 0 16.453126 1.917969 23.617188 5.328125-9.613281 13.347657-15.0625 30.894531-15.0625 49.761719 0 18.84375 5.453125 36.402344 15.070312 49.757812-7.164062 3.414063-15.175781 5.332032-23.625 5.332032-8.382812 0-16.332031-1.890625-23.453124-5.253906 9.648437-13.347657 15.109374-30.917969 15.109374-49.835938 0-18.863281-5.476562-36.457031-15.125-49.828125 7.125-3.367187 15.078126-5.261719 23.46875-5.261719zm-46.25 25.21875c4.976563 8.023438 7.847657 18.609375 7.847657 29.871094 0 11.105469-2.929688 21.761719-7.882813 29.820312-5.5625-8.605468-8.804687-18.835937-8.804687-29.820312 0-11.007812 3.257812-21.257812 8.839843-29.871094zm0 0"/><path d="m364.683594 397.933594h-298.738282c-8.300781 0-15.03125 6.726562-15.03125 15.027344 0 8.300781 6.730469 15.03125 15.03125 15.03125h298.738282c8.300781 0 15.027344-6.730469 15.027344-15.03125 0-8.300782-6.726563-15.027344-15.027344-15.027344zm0 0"/><path d="m68.027344 335.058594c-8.300782 0-15.027344 6.730468-15.027344 15.03125 0 8.296875 6.726562 15.027344 15.027344 15.027344h289.011718c8.300782 0 15.03125-6.730469 15.03125-15.027344 0-8.300782-6.730468-15.03125-15.03125-15.03125zm0 0"/><path d="m253.523438 176.496094h109.074218c8.300782 0 15.03125-6.730469 15.03125-15.03125 0-8.300782-6.730468-15.027344-15.03125-15.027344h-109.074218c-8.300782 0-15.027344 6.726562-15.027344 15.027344 0 8.300781 6.726562 15.03125 15.027344 15.03125zm0 0"/><path d="m363.292969 209.308594h-109.074219c-8.300781 0-15.027344 6.730468-15.027344 15.03125 0 8.300781 6.726563 15.027344 15.027344 15.027344h109.074219c8.300781 0 15.03125-6.726563 15.03125-15.027344 0-8.300782-6.730469-15.03125-15.03125-15.03125zm0 0"/><path d="m376.933594 287.214844c0-8.300782-6.730469-15.03125-15.03125-15.03125h-106.292969c-8.300781 0-15.03125 6.730468-15.03125 15.03125 0 8.300781 6.730469 15.027344 15.03125 15.027344h106.292969c8.300781 0 15.03125-6.726563 15.03125-15.027344zm0 0"/></svg>